# xmcd
#
# Track frame offsets: 
#        150
#        17722
#        35095
#        53267
#        67942
#        81427
#        99397
#        116035
#        128345
#        149085
#        169725
#
# Disc length: 2515 seconds
#
# Revision: 0
# Processed by: cddbd v1.5.2PL0 Copyright (c) Steve Scherf et al.
# Submitted via: ExactAudioCopyFreeDBPlugin 1.0
#
DISCID=8e09d10b
DTITLE=Marvin Gaye - The Best Of Marvin Gaye - Volume 2 - The '70s
DYEAR=2000
DGENRE=Classic Soul
TTITLE0=What's Going On
TTITLE1=Trouble Man
TTITLE2=Let's Get It On
TTITLE3=Mercy Mercy Me (The Ecology)
TTITLE4=Inner City Blues (Make Me Wanna Holler)
TTITLE5=Distant Lover (Live)
TTITLE6=You're A Special Part Of Me (duet with Diana Ross)
TTITLE7=Come Get To This
TTITLE8=I Want You
TTITLE9=My Last Chance
TTITLE10=Go To Give It Up, Part 1
EXTD=
EXTT0=
EXTT1=
EXTT2=
EXTT3=
EXTT4=
EXTT5=
EXTT6=
EXTT7=
EXTT8=
EXTT9=
EXTT10=
PLAYORDER=
